<svg width="32" height="32" viewBox="0 0 32 32" fill="none" xmlns="http://www.w3.org/2000/svg">
<rect width="32" height="32" rx="16" fill="white"/>
<path d="M16 26C21.523 26 26 21.523 26 16C26 10.477 21.523 6 16 6C10.477 6 6 10.477 6 16C6 21.523 10.477 26 16 26Z" stroke="black" stroke-width="2" stroke-linejoin="round"/>
<path d="M16 13C16.3978 13 16.7794 12.842 17.0607 12.5607C17.342 12.2794 17.5 11.8978 17.5 11.5C17.5 11.1022 17.342 10.7206 17.0607 10.4393C16.7794 10.158 16.3978 10 16 10C15.6022 10 15.2206 10.158 14.9393 10.4393C14.658 10.7206 14.5 11.1022 14.5 11.5C14.5 11.8978 14.658 12.2794 14.9393 12.5607C15.2206 12.842 15.6022 13 16 13ZM16 22C16.3978 22 16.7794 21.842 17.0607 21.5607C17.342 21.2794 17.5 20.8978 17.5 20.5C17.5 20.1022 17.342 19.7206 17.0607 19.4393C16.7794 19.158 16.3978 19 16 19C15.6022 19 15.2206 19.158 14.9393 19.4393C14.658 19.7206 14.5 20.1022 14.5 20.5C14.5 20.8978 14.658 21.2794 14.9393 21.5607C15.2206 21.842 15.6022 22 16 22ZM11.5 17.5C11.8978 17.5 12.2794 17.342 12.5607 17.0607C12.842 16.7794 13 16.3978 13 16C13 15.6022 12.842 15.2206 12.5607 14.9393C12.2794 14.658 11.8978 14.5 11.5 14.5C11.1022 14.5 10.7206 14.658 10.4393 14.9393C10.158 15.2206 10 15.6022 10 16C10 16.3978 10.158 16.7794 10.4393 17.0607C10.7206 17.342 11.1022 17.5 11.5 17.5ZM20.5 17.5C20.8978 17.5 21.2794 17.342 21.5607 17.0607C21.842 16.7794 22 16.3978 22 16C22 15.6022 21.842 15.2206 21.5607 14.9393C21.2794 14.658 20.8978 14.5 20.5 14.5C20.1022 14.5 19.7206 14.658 19.4393 14.9393C19.158 15.2206 19 15.6022 19 16C19 16.3978 19.158 16.7794 19.4393 17.0607C19.7206 17.342 20.1022 17.5 20.5 17.5Z" stroke="black" stroke-width="2" stroke-linejoin="round"/>
<path d="M16 26H26" stroke="black" stroke-width="2" stroke-linecap="round"/>
</svg>
